# xmcd
#
# Track frame offsets:
#	150
#	14737
#	33827
#	48532
#	65365
#	79250
#	93367
#	107857
#	126550
#	141312
#	155107
#	171715
#
# Disc length: 2465 seconds
#
# Revision: 4
# Processed by: cddbd v1.5.2PL0 Copyright (c) Steve Scherf et al.
# Submitted via: audiograbber 1.83.01
#
DISCID=b4099f0c
DTITLE=Various Artist - Schlager Für Verliebte Herzen Folge 1
DYEAR=1989
DGENRE=Schlager-Oldies/D
TTITLE0=Albin Berger - Das Feuer Das Sich Liebe Nennt
TTITLE1=Happy (Brunner and Brunner) - Liebe Im Sand
TTITLE2=Südwind - Julia
TTITLE3=Fred Bertelmann - Einfach Nur Geborgen Sein
TTITLE4=Blue Birds - So Wie Wir Uns Versteh´n
TTITLE5=Walter Oberbrandacher - Weisse Möwe Von Haiti
TTITLE6=Chris Wolff - Gina Marina
TTITLE7=Kastelruther Spatzen - Sommerzeit
TTITLE8=Südwind - Du Bist Ein Engel
TTITLE9=Fernando Express - Wenn Du Nicht Bei Mir Bist
TTITLE10=Happy (Brunner and Brunner) - Nathalie
TTITLE11=Die Lustigen Lesachtaler - Adieu Marie
EXTD=No Country !! Folk or Misc\n
EXTT0=
EXTT1="Happy" is the old Name, today "Brunner and Brunner"
EXTT2=
EXTT3=
EXTT4=
EXTT5=
EXTT6=
EXTT7=
EXTT8=
EXTT9=
EXTT10=Happy =Brunner and Brunner
EXTT11=
PLAYORDER=
